<svg id="png_trace" data-name="png trace" xmlns="http://www.w3.org/2000/svg" viewBox="0 0 432.03 432.05"><defs><style>.cls-1{fill:#eb2f8c;}.cls-2{fill:#2a0a0d;}.cls-3{fill:#fe510e;}.cls-4{fill:#fcee00;}</style></defs><title>AIsvgVECTORArtboard 1</title><path class="cls-1" d="M30.7,271.11c.48-3.4-.41-8.86-2.86-14-3.46-7.31-3.76-15-3.57-22.95.12-5.09-.19-10.21-.25-15.31a104.47,104.47,0,0,1,1-18.63c.47-2.8,2.54-4.91,4.53-6.91A19.47,19.47,0,0,0,32.68,190c5.29-8.75,13.56-13,23-15.56a13.82,13.82,0,0,1,1.63-.4c6.07-.87,11.14-3.64,16.22-7.08,8.36-5.67,17.72-7.66,27.8-4.88,4.57,1.26,4.76,2.08,6.05-3.57A52,52,0,0,1,122,132.61c3.59-3.52,7.61-6.6,12.58-8.08,2.71-.8,4.66-2.75,6.64-4.59,4.44-4.14,8.8-8.36,13.19-12.56,6.77-6.48,14.5-8.2,23.36-4.9,4.33,1.61,4.53,1.48,3.86-3a45,45,0,0,1,1.63-19.88c2.13-7.06,6.76-11.83,13.9-13.51,5.07-1.19,9.17-3.07,12.62-7.26a40,40,0,0,1,17.05-12,15.93,15.93,0,0,0,5.38-3.92c6.84-6.7,13.16-14,21.26-19.28,14.42-9.44,29.83-11.37,45.92-5.24,7.64,2.91,13.65,8.52,19.51,14.08,4,3.8,7.91,7.68,12.11,11.25,4,3.43,8.53,6.07,13.77,6.86A36.2,36.2,0,0,1,365,60.9c9.43,9.23,20,16.89,31.08,23.9,2.29,1.45,4.41,3.17,6.69,4.64,4.25,2.75,5,7,4.25,11.35-1.18,6.43-2.82,12.78-4.57,19.08-2,7.16-2.38,14.49-2.64,21.8-.3,8.3-.13,16.64-1.53,24.85-1.21,7.08-2.67,14.1-3.5,21.25-.43,3.73.13,7.33.46,11a23,23,0,0,1-.5,5.89c-1.27,7.81-4.84,14.86-7.35,22.22-4.63,13.57-6.52,27.53-8.3,41.61a114.45,114.45,0,0,1-4.85,20.23c-2.11,6.62-3.06,13.54-4.62,20.3-1.51,6.51-3.43,12.94-6.76,18.86-2.59,4.61-3.63,9.88-6.07,14.58-3.05,5.89-6.15,11.64-10.78,16.59-5.57,6-12.05,6.85-19.4,5-9.84-2.49-19.52-2.63-29.07,1.35a22.32,22.32,0,0,1-9.12,1.72c-8.06-.17-16.13-.19-24.18-.28-9.2-.1-18.51,0-27.61,2.29a16.69,16.69,0,0,1-10.93-1.21c-7-3-14.25-4.06-21.63-1.09a13.28,13.28,0,0,1-4.94.78,283.27,283.27,0,0,1-39.13-2.6,89.11,89.11,0,0,0-18.19-.09c-3.62.26-7.18-.22-10.74-.11a129.59,129.59,0,0,1-28.79-2.64c-4.45-.87-9-1.35-13.42-2.39a9.31,9.31,0,0,0-5,0c-6.08,1.89-12.13,1.39-18.17-.22a43.77,43.77,0,0,0-5.11-1.29c-5.95-.84-10.51-4-14.43-8.3a6.43,6.43,0,0,1-1.68-3.84c-.56-5.15-.8-10.39-2-15.41-1.51-6.45-1.3-13.21-3.74-19.45-2.12-5.44-3.36-11.16-5.35-16.64C30.89,287.72,30.28,280.64,30.7,271.11Zm86-79.5c-4.37-5.75-10.25-8.95-16.13-12.23-6.16-3.44-12-2.35-17.65,1a43.36,43.36,0,0,0-5.74,4.3,18.45,18.45,0,0,1-10.49,4.11,37.64,37.64,0,0,0-16.1,5.68,7.61,7.61,0,0,0-3.83,7.67,93.39,93.39,0,0,1-1.12,21.47c-1.52,10-1.16,19.89,2.23,29.54A45.73,45.73,0,0,1,50.72,270a38.63,38.63,0,0,0,5.11,20.87,29.37,29.37,0,0,1,3.46,14,67.78,67.78,0,0,0,.92,10.72c1.21,6.45,4.18,12.52,4.08,19.29,0,1.79,1.52,3,3.31,3.73,4.17,1.75,8.48,1,12.73.85,7.18-.23,14.31-.68,21.37,1.38a67.1,67.1,0,0,0,19.64,2.42c17.26-.18,34.51-.08,51.77-.18,13.57-.07,27.14-.2,40.67-1.39,2.53-.22,4.57-1.85,7.1-1.95,3.75-.14,7.49-.37,11.24-.54,11-.51,21.83,1.18,32.75,1.34,17.81.25,35.62.7,53.43.49a49.16,49.16,0,0,0,6.92-.44c4.26-.66,7.43-2.77,8.59-7.21a19.67,19.67,0,0,1,5-9.11A27.63,27.63,0,0,0,347,307.6a48.07,48.07,0,0,1,9.79-24.72,30.5,30.5,0,0,0,5.74-15.28,149.25,149.25,0,0,0,.83-17c0-14.36,2.49-28.24,8.41-41.42a77.43,77.43,0,0,0,6.53-24.13c.87-8.68.76-17.38.84-26.08.06-6.22,0-12.49,2.41-18.38a23.83,23.83,0,0,0,2-9.05c0-5.12.51-10.12,2.77-14.9,1.69-3.56,1.77-7.58,1.88-11.5a10,10,0,0,0-5.6-9.75,122.82,122.82,0,0,1-25.28-19.24c-4.91-4.77-10-9.16-17.23-10.1a34.23,34.23,0,0,1-14.89-6.17c-5.24-3.58-9.78-7.95-14.36-12.29-3.41-3.25-6.87-6.44-10.4-9.56-11.26-9.93-28.62-7.78-38.44-.34-5.13,3.88-9.54,8.48-14.07,13-5,4.93-9.71,9.93-16.73,12.34-5.63,1.93-9.63,6.59-13,11.38a14,14,0,0,1-12.46,6.5c-5.42,0-7.19,2-7.71,7.39-.08.79,0,1.6-.08,2.39-.23,5.3.76,10.5,1.25,15.74.57,6.18,1.74,12.45-2.69,17.89a3.47,3.47,0,0,0-.65,1.53c-.39,2.18-1.39,2-3.15,1.24-7-3.2-14-6.2-21-9.32a3.86,3.86,0,0,0-4.94.85c-3.29,3.36-6.71,6.62-10.21,9.77-5.3,4.77-10,10.43-17.51,12a4.86,4.86,0,0,0-1.66.93,33,33,0,0,0-12.09,15.15,132.79,132.79,0,0,0-5.51,19.3C118.66,180.94,118.51,186.26,116.69,191.61Z"/><path class="cls-2" d="M116.69,191.61c1.82-5.35,2-10.67,3.05-15.81a132.79,132.79,0,0,1,5.51-19.3,33,33,0,0,1,12.09-15.15,4.86,4.86,0,0,1,1.66-.93c7.5-1.59,12.21-7.25,17.51-12,3.5-3.15,6.91-6.41,10.21-9.77a3.86,3.86,0,0,1,4.94-.85c7,3.12,14,6.12,21,9.32,1.75.81,2.76.94,3.15-1.24a3.47,3.47,0,0,1,.65-1.53c4.42-5.44,3.26-11.71,2.69-17.89-.48-5.24-1.47-10.44-1.25-15.74,0-.8,0-1.6.08-2.39.52-5.39,2.29-7.39,7.71-7.39a14,14,0,0,0,12.46-6.5c3.35-4.79,7.35-9.45,13-11.38,7-2.4,11.77-7.4,16.73-12.34,4.53-4.5,8.95-9.11,14.07-13,9.82-7.43,27.18-9.58,38.44.34,3.54,3.12,7,6.31,10.4,9.56,4.57,4.35,9.12,8.72,14.36,12.29A34.23,34.23,0,0,0,340,66.09c7.18.94,12.32,5.32,17.23,10.1a122.82,122.82,0,0,0,25.28,19.24,10,10,0,0,1,5.6,9.75c-.1,3.92-.19,7.93-1.88,11.5-2.27,4.78-2.73,9.77-2.77,14.9a23.83,23.83,0,0,1-2,9.05c-2.45,5.89-2.35,12.16-2.41,18.38-.08,8.7,0,17.4-.84,26.08a77.43,77.43,0,0,1-6.53,24.13c-5.92,13.18-8.36,27.06-8.41,41.42a149.25,149.25,0,0,1-.83,17,30.5,30.5,0,0,1-5.74,15.28A48.07,48.07,0,0,0,347,307.6a27.63,27.63,0,0,1-8.1,16.72,19.67,19.67,0,0,0-5,9.11c-1.16,4.45-4.34,6.55-8.59,7.21a49.16,49.16,0,0,1-6.92.44c-17.81.21-35.62-.24-53.43-.49-10.93-.15-21.8-1.84-32.75-1.34-3.75.17-7.49.4-11.24.54-2.52.09-4.57,1.73-7.1,1.95-13.54,1.19-27.1,1.32-40.67,1.39-17.26.09-34.52,0-51.77.18a67.1,67.1,0,0,1-19.64-2.42c-7.06-2.06-14.19-1.62-21.37-1.38-4.25.14-8.56.89-12.73-.85-1.79-.75-3.34-1.94-3.31-3.73.1-6.77-2.87-12.84-4.08-19.29a67.78,67.78,0,0,1-.92-10.72,29.37,29.37,0,0,0-3.46-14A38.63,38.63,0,0,1,50.72,270a45.73,45.73,0,0,0-2.88-16.88c-3.39-9.65-3.75-19.54-2.23-29.54a93.39,93.39,0,0,0,1.12-21.47,7.61,7.61,0,0,1,3.83-7.67,37.64,37.64,0,0,1,16.1-5.68,18.45,18.45,0,0,0,10.49-4.11,43.36,43.36,0,0,1,5.74-4.3c5.67-3.33,11.49-4.42,17.65-1C106.44,182.66,112.32,185.85,116.69,191.61ZM96.84,181.42l-.51-.22.09.59c.57,1.82,1.17,3.64,1.69,5.47.74,2.6,1.09,5.31,2.63,7.64a28.08,28.08,0,0,1,3.55,7.54c2.57,8.7,5.45,17.33,7.28,26.23,1,5,2.13,9.9,5.19,14.65.25-6.37.82-12.28,1.58-18.17A26.64,26.64,0,0,0,116,209.79a16.75,16.75,0,0,1-1.38-8.42c.25-4-1.3-7.14-3.86-10C106.82,187.1,101.88,184.19,96.84,181.42Zm75.23-58.93-.42-.23.06.54a14.72,14.72,0,0,0,3.72,6.34,18.63,18.63,0,0,1,5.2,15.54,16.15,16.15,0,0,0,1.69,10,53.81,53.81,0,0,1,5.06,14.12c1.28,5.29,2.83,10.53,6.64,14.64a13.58,13.58,0,0,1,3.48,6.42c1,4.62,2,9.24,3.19,14.52.14-1.83.33-3,.3-4.19-.19-6.62-.38-13.24,0-19.86a9.57,9.57,0,0,0-2.57-7.7,7,7,0,0,1-2-6.13,52.25,52.25,0,0,0,.58-8.11c-.36-8.45-2.17-16.77-2.4-25.23a1.44,1.44,0,0,0-1.07-1.38Zm-5.35.14c-2.39,2.42-4.44,4.54-6.53,6.62-5.18,5.15-10.68,9.82-17.7,12.4a18.25,18.25,0,0,0-7.81,6.16A34.88,34.88,0,0,0,128.82,159c-3.76,11.71-5.68,23.84-8.26,35.83-1.18,5.49-1.25,10.61,1.07,15.87a23.8,23.8,0,0,1,1.52,12.22c-1,9.19-2.45,18.36-1.33,27.66a2.64,2.64,0,0,1-3.42,2.86,4.9,4.9,0,0,1-3.13-2.44c-3.22-5.26-6.2-10.72-7.36-16.79a198.91,198.91,0,0,0-6-23.1c-1.57-4.92-2.75-10-5.66-14.42A15.27,15.27,0,0,1,93.77,191c-.55-2.8-.71-5.71-2.17-8.28-1.31-2.3-3-2.93-5.4-1.94A15.5,15.5,0,0,0,81.45,184,25.49,25.49,0,0,1,66,191.26a24.48,24.48,0,0,0-12.32,4.18,5.25,5.25,0,0,0-2.34,5.14,80.1,80.1,0,0,1-1,20.75c-1.54,9.9-1.78,19.76,1.81,29.28A54.69,54.69,0,0,1,55.37,271a30.3,30.3,0,0,0,3.8,16.1c3.44,5.88,4.74,12.26,5,19,.16,4.69.35,9.46,2.12,13.89a29.81,29.81,0,0,1,2.17,11.19c0,.87.27,1.73.35,2.6.13,1.3.84,1.74,2.09,1.72,3.12-.05,6.23,0,9.35,0,6.76-.17,13.5-1,20.21.91a64.15,64.15,0,0,0,16.45,2.89c9,.12,18.06,0,27.09.08,1.84,0,2.39-.57,2.71-2.34,1.1-6-.38-12.3,2.31-18.11.84-1.82.5-3.93.48-5.93,0-2.95-.59-5.89-.12-8.84,1.13-7.07,3.11-14,3.52-21.19a4.56,4.56,0,0,1,2.91-3.82c4.12-2,8-.17,8.9,4.73,1.09,6,1.61,12.16,2.48,18.23.38,2.67.72,5.42,3,7.36a31.32,31.32,0,0,1,5.62,6.81,45.65,45.65,0,0,1,7.13,19.6c.31,2.47,1.25,3.27,3.76,3.07,10.59-.86,21.19-.26,31.8-2.62,10.88-2.42,22.23-1.54,33.48-.56a12.5,12.5,0,0,0-.12-5.6c-1-4-1.21-8,.62-11.71a25.41,25.41,0,0,0,1-20.84,6.89,6.89,0,0,1-.27-.92c-.84-3.81-1.15-7.63.72-11.23a28.17,28.17,0,0,0,3-15.05,16.18,16.18,0,0,1,2.71-10,18.46,18.46,0,0,0,1.91-3.59c1.36-3.71,2.48-7.5.51-11.34a13.68,13.68,0,0,1-.91-11.27c2.07-6.08,1.33-12.49,1.37-18.78,0-4.57-.14-9.28,1.65-13.47,3.31-7.79,2.76-15.73,2-23.79-.78-8.84-1.11-17.7,1.28-26.4,1.16-4.22,2.8-8.37,2.86-12.8.1-8.29,0-16.58-.05-24.87,0-7.34-.78-14.66-.12-22,1-10.74,3.08-21.3,5.23-31.83,1.64-8,2.05-15.91-.21-23.88-.55-1.95-1.27-2.18-3-1.47a29.3,29.3,0,0,0-6.46,3.6C260,42.82,255.14,48.1,250,53.1c-4.83,4.67-9.62,9.35-16.44,11.14a12.11,12.11,0,0,0-4.76,3.14,51.36,51.36,0,0,0-6.51,7.34c-3.84,5.14-8.73,8.28-15.33,8.47-3.61.11-4.05.68-4.28,4.28a82,82,0,0,0,1.23,18.6c1.08,6.55,1.32,12.84-3,18.53a10.15,10.15,0,0,0-1.7,6.38c.06,4.56.87,9,1.28,13.57.65,7.29,2,14.57.67,21.93a5.26,5.26,0,0,0,1.61,4.82c2.17,2.14,2.78,4.77,2.8,7.64,0,2-.1,4,0,6a113,113,0,0,1-2.36,29.69c-.4,1.85-1.14,3.33-3.13,3.29s-2.45-1.83-2.65-3.43c-.71-5.54-1.76-11-2.84-16.5-1-5.28-2.37-10.27-6.11-14.55a27.44,27.44,0,0,1-6-13.66c-.62-3.62-1.21-7.27-3.34-10.38a19.36,19.36,0,0,1-3.33-12.7,46.82,46.82,0,0,0,0-4.79,11.42,11.42,0,0,0-2.16-6.71C170.89,131.49,168.27,127.68,166.71,122.63ZM302,336.9c6.71,0,13.42,0,20.13,0,4,0,7.19-1.24,8.31-5.67a21.09,21.09,0,0,1,2-4c.71-1.39,2.93-2.43,2.35-3.83-.48-1.17-2.52-1.78-3.95-2.47-4-1.92-6.36-4.84-6.4-9.5a7.84,7.84,0,0,0-5.66-7.81c-6-2-9.45-6.51-12.2-11.81-1.23-2.36-.91-3,1.64-3.57,1.56-.36,2.15.51,2.68,1.7,2.57,5.73,6.16,10.36,12.5,12.38,3.68,1.17,5.44,4.16,5.6,7.87.21,4.79,2.91,7.5,6.88,9.51,1.39.71,2.05.53,2.84-.79a35.58,35.58,0,0,0,4.45-14.53c.67-6,2.17-11.52,6.07-16.32,7.14-8.77,9.52-19,9.47-30.17a158.46,158.46,0,0,1,1.06-21.5c1.22-9.17,4.23-17.83,7.6-26.36,4-10.16,6.93-20.55,7.15-31.54.13-6.39,0-12.78.09-19.17.12-6.71.47-13.38,2.84-19.79a30.42,30.42,0,0,0,1.51-10.13c.05-2.84-.34-5.84,1.14-8.44a27.5,27.5,0,0,0,3.19-11.65c.47-5.4-.9-9.5-6-12.38a111.18,111.18,0,0,1-23.69-18.16c-5.15-5.12-10.78-9.55-18.27-10.71a26.3,26.3,0,0,1-8.51-3,65.89,65.89,0,0,1-11.74-8.24c-5.92-5.12-11.67-10.43-17.56-15.58a29.68,29.68,0,0,0-15.37-7.26c-2.69-.4-2.8-.26-2.06,2.29,1.32,4.56,2.24,9.21,1.6,13.93-.61,4.57-1.6,9.1-2.53,13.62a276.39,276.39,0,0,0-4.52,27.59c-.31,3-.11,3.32,2.88,3.43a33.77,33.77,0,0,0,5.27,0c2.09-.25,4.27-.36,5.15-3,.5-1.52,2.21-1.63,3.5-1.07,1.5.66.9,2,.43,3.11a6.35,6.35,0,0,1-4.11,3.42,25.3,25.3,0,0,1-9.92,1.14c-3.34-.2-3.38-.33-3.33,3.07.13,8.94.34,17.87.46,26.81.06,4.94.68,9.93-.46,14.8-.89,3.8-2.19,7.5-3.21,11.27-2.52,9.33-1.11,18.71-.34,28.08.42,5.07,1.34,10.21-.72,15.13-3,7.1-3.62,14.47-3.06,22.06.37,4.87.61,9.78-1.54,14.36a9.24,9.24,0,0,0,.3,8.71c2.93,5.53,2.06,11-1,15.93a23,23,0,0,0-3.33,13.21,23.15,23.15,0,0,1-2.53,11.79A16.26,16.26,0,0,0,258,295.81c.35,1.31.64,2.63,1,3.93,1.59,5.16,1.57,10.2-1,15.09a21.51,21.51,0,0,0-1,2.45c-1.44,3.81-2.26,7.64-.72,11.65a10.63,10.63,0,0,1,.55,4c-.05,3.23,0,3.23,3.16,3.47.24,0,.48,0,.72,0C274.49,336.44,288.21,337.2,302,336.9Zm-151,2c8.94,0,17.8,0,26.65,0,1.1,0,1-.43.87-1.31a45.9,45.9,0,0,0-12.32-26.41,11,11,0,0,1-2.82-5.43c-1.2-6-2.6-12-2.81-18.17a13.84,13.84,0,0,0-1.08-5.12c-.24-.55-.58-1.3-1.34-1.13s-.38.94-.45,1.44c-.29,2.13-.58,4.27-.82,6.4-.65,5.62-2.57,11-2.65,16.75-.08,5.92,1.16,12-2.16,17.54-.49.82-.22,1.57,1,1.45,1.46-.14,2.95.16,4.06-1.39a2.9,2.9,0,0,1,3.29-.83,1,1,0,0,1,.74,1.09,3,3,0,0,1-2.12,2.38,15.08,15.08,0,0,1-5.58,1.2c-1.18.06-1.7.5-1.64,1.76A33.53,33.53,0,0,1,150.91,338.94Z"/><path class="cls-3" d="M166.71,122.63c1.55,5,4.17,8.86,6.94,12.56a11.42,11.42,0,0,1,2.16,6.71,46.82,46.82,0,0,1,0,4.79,19.36,19.36,0,0,0,3.33,12.7c2.14,3.1,2.72,6.75,3.34,10.38a27.44,27.44,0,0,0,6,13.66c3.74,4.28,5.07,9.27,6.11,14.55,1.08,5.48,2.13,11,2.84,16.5.2,1.6.62,3.4,2.65,3.43s2.73-1.45,3.13-3.29a113,113,0,0,0,2.36-29.69c-.1-2,0-4,0-6,0-2.88-.62-5.5-2.8-7.64a5.26,5.26,0,0,1-1.61-4.82c1.32-7.36,0-14.63-.67-21.93-.4-4.53-1.22-9-1.28-13.57a10.15,10.15,0,0,1,1.7-6.38c4.29-5.7,4.05-12,3-18.53a82,82,0,0,1-1.23-18.6c.23-3.6.67-4.17,4.28-4.28,6.6-.2,11.49-3.33,15.33-8.47a51.36,51.36,0,0,1,6.51-7.34,12.11,12.11,0,0,1,4.76-3.14c6.82-1.79,11.61-6.47,16.44-11.14,5.16-5,10.06-10.27,15.83-14.62a29.3,29.3,0,0,1,6.46-3.6c1.68-.7,2.4-.47,3,1.47,2.26,8,1.85,15.87.21,23.88-2.16,10.54-4.27,21.09-5.23,31.83-.66,7.35.08,14.68.12,22,0,8.29.15,16.58.05,24.87-.05,4.43-1.7,8.57-2.86,12.8-2.39,8.7-2.06,17.55-1.28,26.4.71,8.06,1.27,16-2,23.79-1.79,4.2-1.61,8.91-1.65,13.47,0,6.29.69,12.7-1.37,18.78a13.68,13.68,0,0,0,.91,11.27c2,3.84.85,7.63-.51,11.34a18.46,18.46,0,0,1-1.91,3.59,16.18,16.18,0,0,0-2.71,10,28.17,28.17,0,0,1-3,15.05c-1.87,3.6-1.55,7.42-.72,11.23a6.89,6.89,0,0,0,.27.92,25.41,25.41,0,0,1-1,20.84c-1.83,3.75-1.58,7.73-.62,11.71a12.5,12.5,0,0,1,.12,5.6c-11.25-1-22.6-1.85-33.48.56-10.61,2.36-21.21,1.75-31.8,2.62-2.51.2-3.45-.59-3.76-3.07a45.65,45.65,0,0,0-7.13-19.6,31.32,31.32,0,0,0-5.62-6.81c-2.26-1.94-2.59-4.7-3-7.36-.87-6.07-1.39-12.2-2.48-18.23-.89-4.9-4.78-6.75-8.9-4.73a4.56,4.56,0,0,0-2.91,3.82c-.41,7.19-2.39,14.12-3.52,21.19-.47,2.95.08,5.89.12,8.84,0,2,.37,4.11-.48,5.93-2.7,5.82-1.21,12.12-2.31,18.11-.33,1.77-.87,2.36-2.71,2.34-9-.1-18.06,0-27.09-.08a64.15,64.15,0,0,1-16.45-2.89c-6.71-1.88-13.46-1.08-20.21-.91-3.11.08-6.23,0-9.35,0-1.25,0-2-.42-2.09-1.72-.08-.87-.35-1.73-.35-2.6A29.81,29.81,0,0,0,66.27,320c-1.77-4.43-2-9.2-2.12-13.89-.24-6.73-1.53-13.11-5-19a30.3,30.3,0,0,1-3.8-16.1,54.69,54.69,0,0,0-3.22-20.41c-3.59-9.52-3.35-19.38-1.81-29.28a80.1,80.1,0,0,0,1-20.75,5.25,5.25,0,0,1,2.34-5.14A24.48,24.48,0,0,1,66,191.26,25.49,25.49,0,0,0,81.45,184a15.5,15.5,0,0,1,4.74-3.19c2.44-1,4.09-.36,5.4,1.94,1.47,2.57,1.63,5.48,2.17,8.28a15.27,15.27,0,0,0,2.43,5.64c2.91,4.38,4.09,9.5,5.66,14.42a198.91,198.91,0,0,1,6,23.1c1.16,6.06,4.14,11.53,7.36,16.79a4.9,4.9,0,0,0,3.13,2.44,2.64,2.64,0,0,0,3.42-2.86c-1.12-9.3.35-18.47,1.33-27.66a23.8,23.8,0,0,0-1.52-12.22c-2.31-5.25-2.25-10.38-1.07-15.87,2.58-12,4.5-24.12,8.26-35.83a34.88,34.88,0,0,1,5.85-11.18,18.25,18.25,0,0,1,7.81-6.16c7-2.58,12.51-7.25,17.7-12.4C162.27,127.17,164.32,125.06,166.71,122.63Zm20.65,129.43c0-1,0-2.34,0-3.7,0-1.2.23-2.59-1.6-2.57-1.61,0-2.77.62-2.79,2.52,0,1.27-.32,2.54-.27,3.81.2,4.91-.08,9.94,3.27,14.14a8.45,8.45,0,0,1,1.16,8c-2.41,7.44,1.3,13,5.11,18.54.92,1.34,2.28.86,3.42.14,1.39-.87.71-1.88.08-2.85-.79-1.2-1.65-2.36-2.34-3.62-2.09-3.86-3.55-7.76-1.91-12.31a10.66,10.66,0,0,0-1.26-9.41A19.65,19.65,0,0,1,187.37,252.06ZM85,284.24c-4.32-.31-5.82,1.15-5.59,5a12.76,12.76,0,0,0,1.34,4.55,8.57,8.57,0,0,1,.17,6.92c-.7,1.86-1.65,3.66-1.81,5.66-.09,1.1-.78,2.82,1.44,2.75,1.59-.05,3.32.05,2.91-2.56a5.43,5.43,0,0,1,.74-3.2,13.06,13.06,0,0,0,0-13.17A5,5,0,0,1,85,284.24Zm64.91-102.36a11.53,11.53,0,0,0,3.15,6.79c1.27,1.34,2.78.33,3.9-.45s-.18-1.52-.56-2.1c-2.17-3.29-2.74-6.56-.42-10a9.43,9.43,0,0,0,1.56-5c0-.89.82-2.59-1.14-2.46-1.38.09-3.21,0-3.17,2.33a12.52,12.52,0,0,1-2.08,7A7.73,7.73,0,0,0,149.92,181.88ZM111.46,298.65c-.75,2,.53,1.9,1.7,1.74,2.26-.31,3.24-2,2.5-4.19-.79-2.37-2.73-3.65-4.72-4.88-2.45-1.51-2.72-2.71-1.12-5,.27-.39.61-.73.92-1.1s.81-.67.51-1.21-.84-.34-1.3-.37c-2.67-.2-3.74,1.86-4.88,3.63-1.53,2.37-1,4.13,1.39,5.62A32.12,32.12,0,0,1,109.6,295,4.63,4.63,0,0,1,111.46,298.65Zm107.49-1.31a7.08,7.08,0,0,0,1.56,5.14,7.28,7.28,0,0,1,1.55,3.19c.21,1.81,1.29,2.26,2.85,2s1.88-1.51,1.67-2.93a9,9,0,0,0-2.1-4.46c-1.67-2.06-1.49-4.2.21-5.06,1-.48,2.07-.92,1.7-2.2a2.59,2.59,0,0,0-2.63-1.71C220.73,291.11,219,293.33,218.95,297.34ZM62.59,219.91a5.49,5.49,0,0,0,2,4.65c1.34,1.21,2.6.38,3.69-.32,1.46-.93,0-1.61-.46-2.26a6.45,6.45,0,0,1-.54-5.72c.95-3,3-5.2,5.17-7.33.41-.4,1.31-.73.93-1.43s-1.26-.37-1.94-.18C67.55,208.4,62.58,215.33,62.59,219.91Zm185.16-10.63c-.42-1.28-1.46-1.48-2.78-1.13-2.85.74-4.7,3.43-4.76,7.18,0,1.77-.21,3.33-2.09,4.14-.94.41-1.76,1.11-1.26,2.2.57,1.25,1.7,1.16,2.87.74a7.28,7.28,0,0,0,5.07-7c0-1.9.05-3.69,2.22-4.53C247.6,210.64,247.82,210.1,247.75,209.28Zm4.68-139.45a10.35,10.35,0,0,0-5.31,2c-3.15,2.41-5.91,5.33-9.61,7a1,1,0,0,0-.71,1.11c.13.65.65.86,1.23.92a3.59,3.59,0,0,0,2.09-.34c2.48-1.28,5-2.5,6.94-4.56,1.78-1.88,3.52-3.64,6.49-3.3.95.11,2.31-.38,2.29-1.6s-1.36-1-2.24-1.21A8.08,8.08,0,0,0,252.43,69.83Zm-3.19,79.72c.79.7,2.24-.27,2.33,1.34.14,2.56.22,5.09-1.36,7.34-.41.59-1.49,1.21-.79,2s1.64.17,2.48-.13a5.13,5.13,0,0,0,1.69-1.28c2.49-2.33,2.46-5.33,2.38-8.4-.09-3.54-1.07-4.22-4.28-2.68C250.81,148.12,249.72,148.37,249.24,149.55Zm-21-43.26a8.86,8.86,0,0,0,3.86-.49c1-.41,1.81-1.1,1.24-2.17-1-1.81-.19-2.41,1.45-2.74.45-.09.94-.44.83-1s-.68-.66-1.15-.63a20.76,20.76,0,0,0-4.44.83c-2,.59-1.09,3.4-2.47,3.63s-3.25-.63-4.84.32c-.33.2-.76.39-.7.87s.55.53.9.62A14.83,14.83,0,0,0,228.26,106.29Zm5.3,146.63a3.39,3.39,0,0,0-3.74.16A10.81,10.81,0,0,0,224.7,262c0,.87-.38,2.1,1.19,2,1.34-.05,3.1,0,3.09-1.81C229,258.41,230.61,255.53,233.57,252.92Zm-90.79,4.35c.06-1.07,0-2.22-1.05-2.7a3.51,3.51,0,0,0-3.4.41c-1.34.85-.09,1.63.06,2.44a3.52,3.52,0,0,1-.62,2.49,37.42,37.42,0,0,1-2.26,3c-.37.48-1.09.86-.73,1.6s1.1.5,1.7.49C138.83,265,142.67,260.27,142.77,257.27Zm81.14-80.05a4.51,4.51,0,0,0-1.37.56,21.69,21.69,0,0,1-7.74,3,6.74,6.74,0,0,0-3.6,1.79c-.94.93-2.72,1.56-2.1,3.33.35,1,2.88.25,4.26-1.36a6.09,6.09,0,0,1,3.85-2.13,22.6,22.6,0,0,0,7.86-3.37c.45-.27,1.14-.53,1-1.2S225.13,177.32,223.91,177.22ZM88.49,227.39c0-.76,0-1.4,0-2-.05-.83.34-1.88-.72-2.32s-2,.1-2.94.54a2,2,0,0,0-1,2c0,1.59.05,3.18,0,4.76-.08,2,1,2.24,2.59,1.81C89.25,231.42,88.31,229.12,88.49,227.39Zm48.09-62.62c1.54-.18,2.86-.61,3.36-2.43a19.78,19.78,0,0,1,2.8-5.78c.41-.6,1.64-1,1.08-1.85-.67-1-1.76-.33-2.61,0a6,6,0,0,0-1.8,1.15c-2.22,2.11-3.11,5-4.11,7.72C134.9,164.73,135.79,164.72,136.58,164.77Zm-68,83.5c-.59.14-1.85.17-2.32,1.11-.56,1.11.82,1.51,1.39,2.15,1,1.11,2.22,2,3.23,3.14,1.18,1.29,2.47,1.19,3.88.59,1.19-.51,1.73-1.09.45-2.18-1.5-1.28-2.93-2.66-4.36-4A2.39,2.39,0,0,0,68.63,248.27Zm87-19.33c2.88-.45,6-.33,8.3-2.49.85-.79,1.84-1.75,1.11-3.1-.4-.74-3.14-.19-3.9.74a3,3,0,0,0-.41.86,2.58,2.58,0,0,1-2.85,1.67,19.32,19.32,0,0,0-2.39,0c-.89.08-2,.38-2,1.33C153.54,229.09,154.81,228.75,155.62,228.94Zm73.89-92.86c-1.35,0-2.73-.17-4,.53-.48.27-1,.59-.86,1.28a1.08,1.08,0,0,0,1.07.81,19.32,19.32,0,0,0,6.18-.21c.7-.2,1.45-.55,1.38-1.42s-.93-1-1.64-1S230.23,136.08,229.51,136.08Z"/><path class="cls-3" d="M302,336.9c-13.74.3-27.46-.46-41.2-.48-.24,0-.48,0-.72,0-3.19-.24-3.21-.24-3.16-3.47a10.63,10.63,0,0,0-.55-4c-1.54-4-.72-7.84.72-11.65a21.51,21.51,0,0,1,1-2.45c2.57-4.89,2.59-9.93,1-15.09-.4-1.29-.68-2.62-1-3.93a16.26,16.26,0,0,1,1.11-12.31,23.15,23.15,0,0,0,2.53-11.79A23,23,0,0,1,265,258.49c3-5,3.92-10.4,1-15.93a9.24,9.24,0,0,1-.3-8.71c2.15-4.59,1.9-9.49,1.54-14.36-.57-7.58.08-15,3.06-22.06,2.06-4.92,1.14-10.06.72-15.13-.78-9.37-2.18-18.76.34-28.08,1-3.77,2.32-7.47,3.21-11.27,1.14-4.87.52-9.86.46-14.8-.11-8.94-.32-17.87-.46-26.81-.05-3.4,0-3.27,3.33-3.07a25.3,25.3,0,0,0,9.92-1.14,6.35,6.35,0,0,0,4.11-3.42c.47-1.1,1.07-2.45-.43-3.11-1.29-.56-3-.45-3.5,1.07-.88,2.68-3.06,2.8-5.15,3a33.77,33.77,0,0,1-5.27,0c-3-.12-3.19-.41-2.88-3.43a276.39,276.39,0,0,1,4.52-27.59c.93-4.52,1.92-9,2.53-13.62.63-4.73-.28-9.38-1.6-13.93-.73-2.54-.62-2.69,2.06-2.29a29.68,29.68,0,0,1,15.37,7.26c5.89,5.15,11.64,10.46,17.56,15.58A65.89,65.89,0,0,0,326.8,65a26.3,26.3,0,0,0,8.51,3c7.49,1.15,13.13,5.58,18.27,10.71a111.18,111.18,0,0,0,23.69,18.16c5.09,2.88,6.46,7,6,12.38a27.5,27.5,0,0,1-3.19,11.65c-1.49,2.6-1.09,5.61-1.14,8.44a30.42,30.42,0,0,1-1.51,10.13c-2.37,6.41-2.72,13.08-2.84,19.79-.11,6.39,0,12.78-.09,19.17-.22,11-3.14,21.38-7.15,31.54-3.37,8.53-6.38,17.19-7.6,26.36a158.46,158.46,0,0,0-1.06,21.5c0,11.14-2.33,21.4-9.47,30.17-3.9,4.8-5.4,10.33-6.07,16.32a35.58,35.58,0,0,1-4.45,14.53c-.78,1.31-1.44,1.49-2.84.79-4-2-6.67-4.73-6.88-9.51-.16-3.71-1.93-6.7-5.6-7.87-6.34-2-9.93-6.65-12.5-12.38-.53-1.18-1.13-2.05-2.68-1.7-2.55.59-2.87,1.21-1.64,3.57,2.75,5.3,6.16,9.81,12.2,11.81a7.84,7.84,0,0,1,5.66,7.81c0,4.66,2.38,7.58,6.4,9.5,1.43.69,3.47,1.3,3.95,2.47.57,1.4-1.65,2.44-2.35,3.83a21.09,21.09,0,0,0-2,4c-1.13,4.43-4.33,5.64-8.31,5.67C315.38,336.94,308.66,336.9,302,336.9Z"/><path class="cls-4" d="M172.07,122.49l21.46,9.28a1.44,1.44,0,0,1,1.07,1.38c.23,8.46,2,16.78,2.4,25.23a52.25,52.25,0,0,1-.58,8.11,7,7,0,0,0,2,6.13,9.57,9.57,0,0,1,2.57,7.7c-.35,6.62-.17,13.24,0,19.86,0,1.18-.16,2.36-.3,4.19-1.16-5.28-2.17-9.9-3.19-14.52a13.58,13.58,0,0,0-3.48-6.42c-3.81-4.12-5.36-9.35-6.64-14.64a53.81,53.81,0,0,0-5.06-14.12,16.15,16.15,0,0,1-1.69-10,18.63,18.63,0,0,0-5.2-15.54,14.72,14.72,0,0,1-3.72-6.34A2.63,2.63,0,0,0,172.07,122.49Z"/><path class="cls-4" d="M150.91,338.94a33.53,33.53,0,0,0,.8-9.76c-.06-1.26.46-1.69,1.64-1.76a15.08,15.08,0,0,0,5.58-1.2,3,3,0,0,0,2.12-2.38,1,1,0,0,0-.74-1.09,2.9,2.9,0,0,0-3.29.83c-1.11,1.55-2.6,1.25-4.06,1.39-1.22.12-1.49-.63-1-1.45C155.28,318,154,311.9,154.13,306c.08-5.71,2-11.13,2.65-16.75.25-2.14.53-4.27.82-6.4.07-.51-.26-1.28.45-1.44s1.1.58,1.34,1.13a13.84,13.84,0,0,1,1.08,5.12c.21,6.17,1.61,12.15,2.81,18.17a11,11,0,0,0,2.82,5.43,45.9,45.9,0,0,1,12.32,26.41c.1.87.24,1.31-.87,1.31C168.71,338.93,159.86,338.94,150.91,338.94Z"/><path class="cls-4" d="M96.84,181.42c5,2.77,10,5.68,13.91,10,2.56,2.81,4.11,6,3.86,10a16.75,16.75,0,0,0,1.38,8.42,26.64,26.64,0,0,1,2.36,15.37c-.76,5.89-1.33,11.8-1.58,18.17-3.06-4.75-4.16-9.67-5.19-14.65-1.84-8.9-4.71-17.53-7.28-26.23a28.08,28.08,0,0,0-3.55-7.54c-1.54-2.32-1.89-5-2.63-7.64-.52-1.84-1.13-3.65-1.69-5.47Z"/><path class="cls-4" d="M96.42,181.78l-.09-.59.51.22Z"/><path class="cls-4" d="M171.71,122.81l-.06-.54.42.23A2.63,2.63,0,0,1,171.71,122.81Z"/><path class="cls-4" d="M187.37,252.06a19.65,19.65,0,0,0,2.87,12.7,10.66,10.66,0,0,1,1.26,9.41c-1.64,4.54-.19,8.45,1.91,12.31.68,1.26,1.55,2.42,2.34,3.62.64,1,1.31,2-.08,2.85-1.14.72-2.5,1.21-3.42-.14-3.81-5.57-7.52-11.11-5.11-18.54a8.45,8.45,0,0,0-1.16-8c-3.35-4.21-3.07-9.23-3.27-14.14-.05-1.26.25-2.54.27-3.81,0-1.9,1.18-2.51,2.79-2.52,1.83,0,1.61,1.37,1.6,2.57C187.36,249.72,187.37,251.08,187.37,252.06Z"/><path class="cls-4" d="M85,284.24a5,5,0,0,0-.75,6,13.06,13.06,0,0,1,0,13.17,5.43,5.43,0,0,0-.74,3.2c.41,2.61-1.32,2.51-2.91,2.56-2.22.07-1.53-1.65-1.44-2.75.16-2,1.11-3.81,1.81-5.66a8.57,8.57,0,0,0-.17-6.92,12.76,12.76,0,0,1-1.34-4.55C79.19,285.4,80.7,283.93,85,284.24Z"/><path class="cls-4" d="M149.92,181.88a7.73,7.73,0,0,1,1.24-3.88,12.52,12.52,0,0,0,2.08-7c0-2.33,1.79-2.23,3.17-2.33,2-.13,1.17,1.57,1.14,2.46a9.43,9.43,0,0,1-1.56,5c-2.32,3.47-1.76,6.74.42,10,.38.58,1.76,1.27.56,2.1s-2.63,1.79-3.9.45A11.53,11.53,0,0,1,149.92,181.88Z"/><path class="cls-4" d="M111.46,298.65A4.63,4.63,0,0,0,109.6,295a32.12,32.12,0,0,0-3.15-2.16c-2.39-1.5-2.92-3.25-1.39-5.62,1.14-1.77,2.21-3.83,4.88-3.63.46,0,1-.1,1.3.37s-.22.85-.51,1.21-.65.71-.92,1.1c-1.6,2.33-1.33,3.53,1.12,5,2,1.23,3.93,2.5,4.72,4.88.74,2.21-.24,3.88-2.5,4.19C112,300.55,110.7,300.66,111.46,298.65Z"/><path class="cls-4" d="M218.95,297.34c0-4,1.78-6.23,4.81-6.06a2.59,2.59,0,0,1,2.63,1.71c.37,1.28-.74,1.72-1.7,2.2-1.71.86-1.88,3-.21,5.06a9,9,0,0,1,2.1,4.46c.21,1.42,0,2.6-1.67,2.93s-2.64-.14-2.85-2a7.28,7.28,0,0,0-1.55-3.19A7.08,7.08,0,0,1,218.95,297.34Z"/><path class="cls-4" d="M62.59,219.91c0-4.58,5-11.51,8.87-12.6.69-.19,1.52-.59,1.94.18s-.52,1-.93,1.43c-2.17,2.13-4.22,4.35-5.17,7.33a6.45,6.45,0,0,0,.54,5.72c.42.65,1.92,1.33.46,2.26-1.09.7-2.35,1.53-3.69.32A5.49,5.49,0,0,1,62.59,219.91Z"/><path class="cls-4" d="M247.75,209.28c.07.82-.15,1.36-.72,1.57-2.17.83-2.21,2.62-2.22,4.53a7.28,7.28,0,0,1-5.07,7c-1.17.42-2.3.51-2.87-.74-.49-1.09.32-1.8,1.26-2.2,1.87-.81,2.06-2.37,2.09-4.14.06-3.75,1.91-6.44,4.76-7.18C246.29,207.81,247.33,208,247.75,209.28Z"/><path class="cls-4" d="M252.43,69.83a8.08,8.08,0,0,1,1.17,0c.88.19,2.23,0,2.24,1.21s-1.35,1.71-2.29,1.6c-3-.34-4.71,1.43-6.49,3.3-1.95,2.06-4.46,3.28-6.94,4.56a3.59,3.59,0,0,1-2.09.34c-.58-.06-1.11-.27-1.23-.92a1,1,0,0,1,.71-1.11c3.7-1.64,6.46-4.57,9.61-7A10.35,10.35,0,0,1,252.43,69.83Z"/><path class="cls-4" d="M249.24,149.55c.48-1.18,1.57-1.43,2.45-1.85,3.21-1.54,4.19-.85,4.28,2.68.08,3.07.1,6.07-2.38,8.4a5.13,5.13,0,0,1-1.69,1.28c-.83.3-1.87.78-2.48.13s.38-1.38.79-2c1.58-2.25,1.51-4.78,1.36-7.34C251.48,149.28,250,150.25,249.24,149.55Z"/><path class="cls-4" d="M228.26,106.29a14.83,14.83,0,0,1-5.32-.76c-.35-.1-.85-.13-.9-.62s.37-.67.7-.87c1.59-.94,3.31-.07,4.84-.32s.49-3,2.47-3.63a20.76,20.76,0,0,1,4.44-.83c.47,0,1,.07,1.15.63s-.38.91-.83,1c-1.64.33-2.42.93-1.45,2.74.57,1.07-.25,1.75-1.24,2.17A8.86,8.86,0,0,1,228.26,106.29Z"/><path class="cls-4" d="M233.57,252.92c-3,2.61-4.61,5.49-4.59,9.3,0,1.77-1.75,1.76-3.09,1.81-1.57.06-1.21-1.17-1.19-2a10.81,10.81,0,0,1,5.12-8.91A3.39,3.39,0,0,1,233.57,252.92Z"/><path class="cls-4" d="M142.78,257.27c-.11,3-3.94,7.72-6.32,7.76-.6,0-1.36.22-1.7-.49s.36-1.11.73-1.6a37.42,37.42,0,0,0,2.26-3,3.52,3.52,0,0,0,.62-2.49c-.15-.81-1.39-1.59-.06-2.44a3.51,3.51,0,0,1,3.4-.41C142.79,255.06,142.83,256.21,142.78,257.27Z"/><path class="cls-4" d="M223.91,177.22c1.22.11,1.94-.09,2.12.6s-.52.93-1,1.2a22.6,22.6,0,0,1-7.86,3.37,6.09,6.09,0,0,0-3.85,2.13c-1.38,1.62-3.91,2.37-4.26,1.36-.62-1.77,1.16-2.4,2.1-3.33a6.74,6.74,0,0,1,3.6-1.79,21.69,21.69,0,0,0,7.74-3A4.51,4.51,0,0,1,223.91,177.22Z"/><path class="cls-4" d="M88.49,227.39c-.17,1.73.76,4-2.06,4.78-1.62.44-2.67.21-2.59-1.81.06-1.59,0-3.18,0-4.76a2,2,0,0,1,1-2c.92-.44,1.9-1,2.94-.54s.66,1.49.72,2.32C88.52,226,88.49,226.63,88.49,227.39Z"/><path class="cls-4" d="M136.58,164.77c-.79,0-1.68,0-1.28-1.16,1-2.76,1.89-5.61,4.11-7.72a6,6,0,0,1,1.8-1.15c.85-.35,1.95-1,2.61,0,.56.83-.67,1.25-1.08,1.85a19.78,19.78,0,0,0-2.8,5.78C139.43,164.16,138.12,164.59,136.58,164.77Z"/><path class="cls-4" d="M68.63,248.27a2.39,2.39,0,0,1,2.28.79c1.44,1.36,2.86,2.74,4.36,4,1.28,1.09.74,1.68-.45,2.18-1.41.6-2.71.7-3.88-.59-1-1.11-2.22-2-3.23-3.14-.58-.64-2-1-1.39-2.15C66.78,248.44,68,248.41,68.63,248.27Z"/><path class="cls-4" d="M155.62,228.94c-.81-.19-2.08.15-2.13-1-.05-.95,1.09-1.24,2-1.33a19.32,19.32,0,0,1,2.39,0,2.58,2.58,0,0,0,2.85-1.67,3,3,0,0,1,.41-.86c.76-.93,3.5-1.48,3.9-.74.73,1.35-.26,2.31-1.11,3.1C161.57,228.61,158.5,228.49,155.62,228.94Z"/><path class="cls-4" d="M229.51,136.08c.72,0,1.44,0,2.16,0s1.57,0,1.64,1-.68,1.22-1.38,1.42a19.32,19.32,0,0,1-6.18.21,1.08,1.08,0,0,1-1.07-.81c-.15-.69.37-1,.86-1.28C226.78,135.9,228.16,136.09,229.51,136.08Z"/></svg>